%TF.GenerationSoftware,KiCad,Pcbnew,9.0.2*%
%TF.CreationDate,2025-06-18T19:47:00+03:00*%
%TF.ProjectId,solder_PCB,736f6c64-6572-45f5-9043-422e6b696361,rev?*%
%TF.SameCoordinates,Original*%
%TF.FileFunction,Legend,Top*%
%TF.FilePolarity,Positive*%
%FSLAX46Y46*%
G04 Gerber Fmt 4.6, Leading zero omitted, Abs format (unit mm)*
G04 Created by KiCad (PCBNEW 9.0.2) date 2025-06-18 19:47:00*
%MOMM*%
%LPD*%
G01*
G04 APERTURE LIST*
%ADD10C,0.000000*%
%ADD11C,0.150000*%
%ADD12C,0.120000*%
G04 APERTURE END LIST*
D10*
G36*
X167023854Y-91464587D02*
G01*
X167151602Y-91481586D01*
X167273232Y-91500387D01*
X167389460Y-91521751D01*
X167501005Y-91546441D01*
X167608582Y-91575219D01*
X167712908Y-91608849D01*
X167814701Y-91648092D01*
X167914678Y-91693710D01*
X168013555Y-91746467D01*
X168112049Y-91807125D01*
X168210877Y-91876445D01*
X168310757Y-91955192D01*
X168412404Y-92044126D01*
X168516537Y-92144010D01*
X168635246Y-92359273D01*
X168745575Y-92572418D01*
X168847493Y-92784038D01*
X168940969Y-92994727D01*
X169025972Y-93205077D01*
X169102471Y-93415682D01*
X169170436Y-93627136D01*
X169229835Y-93840031D01*
X169280638Y-94054961D01*
X169322813Y-94272519D01*
X169356331Y-94493298D01*
X169381159Y-94717892D01*
X169397268Y-94946893D01*
X169404627Y-95180895D01*
X169403204Y-95420492D01*
X169392969Y-95666276D01*
X168070052Y-95666276D01*
X168334636Y-96989193D01*
X167011719Y-97253776D01*
X167276303Y-95666276D01*
X167011719Y-95616220D01*
X166664454Y-95550521D01*
X166240965Y-95460346D01*
X166085128Y-95424075D01*
X165943051Y-95387223D01*
X165797097Y-95344946D01*
X165629633Y-95292397D01*
X165159636Y-95137109D01*
X165331413Y-94508213D01*
X165506902Y-93880339D01*
X165598287Y-93549610D01*
X166217969Y-93549610D01*
X167011719Y-95137109D01*
X168070052Y-95137109D01*
X168276381Y-94886636D01*
X168359102Y-94781898D01*
X168429036Y-94687628D01*
X168486811Y-94601428D01*
X168511336Y-94560605D01*
X168533058Y-94520900D01*
X168552054Y-94482014D01*
X168568405Y-94443646D01*
X168582189Y-94405497D01*
X168593484Y-94367268D01*
X168602369Y-94328658D01*
X168608923Y-94289368D01*
X168613224Y-94249097D01*
X168615352Y-94207547D01*
X168615385Y-94164417D01*
X168613402Y-94119408D01*
X168609482Y-94072219D01*
X168603702Y-94022552D01*
X168586882Y-93914581D01*
X168563572Y-93793098D01*
X168500000Y-93500000D01*
X168334636Y-92755860D01*
X167011719Y-93549610D01*
X166747136Y-92755860D01*
X166217969Y-93549610D01*
X165598287Y-93549610D01*
X165702238Y-93173405D01*
X165751085Y-93045168D01*
X165801433Y-92921677D01*
X165853432Y-92802469D01*
X165907230Y-92687085D01*
X165962976Y-92575063D01*
X166020817Y-92465943D01*
X166080902Y-92359264D01*
X166143380Y-92254565D01*
X166208399Y-92151384D01*
X166276107Y-92049262D01*
X166346652Y-91947737D01*
X166420184Y-91846349D01*
X166576798Y-91642138D01*
X166747136Y-91432943D01*
X167023854Y-91464587D01*
G37*
G36*
X138906576Y-91571945D02*
G01*
X139034324Y-91588944D01*
X139155954Y-91607745D01*
X139272182Y-91629109D01*
X139383727Y-91653799D01*
X139491304Y-91682577D01*
X139595630Y-91716207D01*
X139697423Y-91755450D01*
X139797400Y-91801068D01*
X139896277Y-91853825D01*
X139994771Y-91914483D01*
X140093599Y-91983803D01*
X140193479Y-92062550D01*
X140295126Y-92151484D01*
X140399259Y-92251368D01*
X140517968Y-92466631D01*
X140628297Y-92679776D01*
X140730215Y-92891396D01*
X140823691Y-93102085D01*
X140908694Y-93312435D01*
X140985193Y-93523040D01*
X141053158Y-93734494D01*
X141112557Y-93947389D01*
X141163360Y-94162319D01*
X141205535Y-94379877D01*
X141239053Y-94600656D01*
X141263881Y-94825250D01*
X141279990Y-95054251D01*
X141287349Y-95288253D01*
X141285926Y-95527850D01*
X141275691Y-95773634D01*
X139952774Y-95773634D01*
X140217358Y-97096551D01*
X138894441Y-97361134D01*
X139159025Y-95773634D01*
X138894441Y-95723578D01*
X138547176Y-95657879D01*
X138123687Y-95567704D01*
X137967850Y-95531433D01*
X137825773Y-95494581D01*
X137679819Y-95452304D01*
X137512355Y-95399755D01*
X137042358Y-95244467D01*
X137214135Y-94615571D01*
X137389624Y-93987697D01*
X137481009Y-93656968D01*
X138100691Y-93656968D01*
X138894441Y-95244467D01*
X139952774Y-95244467D01*
X140159103Y-94993994D01*
X140241824Y-94889256D01*
X140311758Y-94794986D01*
X140369533Y-94708786D01*
X140394058Y-94667963D01*
X140415780Y-94628258D01*
X140434776Y-94589372D01*
X140451127Y-94551004D01*
X140464911Y-94512855D01*
X140476206Y-94474626D01*
X140485091Y-94436016D01*
X140491645Y-94396726D01*
X140495946Y-94356455D01*
X140498074Y-94314905D01*
X140498107Y-94271775D01*
X140496124Y-94226766D01*
X140492204Y-94179577D01*
X140486424Y-94129910D01*
X140469604Y-94021939D01*
X140446294Y-93900456D01*
X140382722Y-93607358D01*
X140217358Y-92863218D01*
X138894441Y-93656968D01*
X138629858Y-92863218D01*
X138100691Y-93656968D01*
X137481009Y-93656968D01*
X137584960Y-93280763D01*
X137633807Y-93152526D01*
X137684155Y-93029035D01*
X137736154Y-92909827D01*
X137789952Y-92794443D01*
X137845698Y-92682421D01*
X137903539Y-92573301D01*
X137963624Y-92466622D01*
X138026102Y-92361923D01*
X138091121Y-92258742D01*
X138158829Y-92156620D01*
X138229374Y-92055095D01*
X138302906Y-91953707D01*
X138459520Y-91749496D01*
X138629858Y-91540301D01*
X138906576Y-91571945D01*
G37*
G36*
X136747747Y-77415325D02*
G01*
X136875495Y-77432324D01*
X136997125Y-77451125D01*
X137113353Y-77472489D01*
X137224898Y-77497179D01*
X137332475Y-77525957D01*
X137436801Y-77559587D01*
X137538594Y-77598830D01*
X137638571Y-77644448D01*
X137737448Y-77697205D01*
X137835942Y-77757863D01*
X137934770Y-77827183D01*
X138034650Y-77905930D01*
X138136297Y-77994864D01*
X138240430Y-78094748D01*
X138359139Y-78310011D01*
X138469468Y-78523156D01*
X138571386Y-78734776D01*
X138664862Y-78945465D01*
X138749865Y-79155815D01*
X138826364Y-79366420D01*
X138894329Y-79577874D01*
X138953728Y-79790769D01*
X139004531Y-80005699D01*
X139046706Y-80223257D01*
X139080224Y-80444036D01*
X139105052Y-80668630D01*
X139121161Y-80897631D01*
X139128520Y-81131633D01*
X139127097Y-81371230D01*
X139116862Y-81617014D01*
X137793945Y-81617014D01*
X138058529Y-82939931D01*
X136735612Y-83204514D01*
X137000196Y-81617014D01*
X136735612Y-81566958D01*
X136388347Y-81501259D01*
X135964858Y-81411084D01*
X135809021Y-81374813D01*
X135666944Y-81337961D01*
X135520990Y-81295684D01*
X135353526Y-81243135D01*
X134883529Y-81087847D01*
X135055306Y-80458951D01*
X135230795Y-79831077D01*
X135322180Y-79500348D01*
X135941862Y-79500348D01*
X136735612Y-81087847D01*
X137793945Y-81087847D01*
X138000274Y-80837374D01*
X138082995Y-80732636D01*
X138152929Y-80638366D01*
X138210704Y-80552166D01*
X138235229Y-80511343D01*
X138256951Y-80471638D01*
X138275947Y-80432752D01*
X138292298Y-80394384D01*
X138306082Y-80356235D01*
X138317377Y-80318006D01*
X138326262Y-80279396D01*
X138332816Y-80240106D01*
X138337117Y-80199835D01*
X138339245Y-80158285D01*
X138339278Y-80115155D01*
X138337295Y-80070146D01*
X138333375Y-80022957D01*
X138327595Y-79973290D01*
X138310775Y-79865319D01*
X138287465Y-79743836D01*
X138223893Y-79450738D01*
X138058529Y-78706598D01*
X136735612Y-79500348D01*
X136471029Y-78706598D01*
X135941862Y-79500348D01*
X135322180Y-79500348D01*
X135426131Y-79124143D01*
X135474978Y-78995906D01*
X135525326Y-78872415D01*
X135577325Y-78753207D01*
X135631123Y-78637823D01*
X135686869Y-78525801D01*
X135744710Y-78416681D01*
X135804795Y-78310002D01*
X135867273Y-78205303D01*
X135932292Y-78102122D01*
X136000000Y-78000000D01*
X136070545Y-77898475D01*
X136144077Y-77797087D01*
X136300691Y-77592876D01*
X136471029Y-77383681D01*
X136747747Y-77415325D01*
G37*
D11*
X151191905Y-99814819D02*
X151191905Y-98814819D01*
X151191905Y-98814819D02*
X151430000Y-98814819D01*
X151430000Y-98814819D02*
X151572857Y-98862438D01*
X151572857Y-98862438D02*
X151668095Y-98957676D01*
X151668095Y-98957676D02*
X151715714Y-99052914D01*
X151715714Y-99052914D02*
X151763333Y-99243390D01*
X151763333Y-99243390D02*
X151763333Y-99386247D01*
X151763333Y-99386247D02*
X151715714Y-99576723D01*
X151715714Y-99576723D02*
X151668095Y-99671961D01*
X151668095Y-99671961D02*
X151572857Y-99767200D01*
X151572857Y-99767200D02*
X151430000Y-99814819D01*
X151430000Y-99814819D02*
X151191905Y-99814819D01*
X152715714Y-99814819D02*
X152144286Y-99814819D01*
X152430000Y-99814819D02*
X152430000Y-98814819D01*
X152430000Y-98814819D02*
X152334762Y-98957676D01*
X152334762Y-98957676D02*
X152239524Y-99052914D01*
X152239524Y-99052914D02*
X152144286Y-99100533D01*
X141586667Y-100017200D02*
X141729524Y-100064819D01*
X141729524Y-100064819D02*
X141967619Y-100064819D01*
X141967619Y-100064819D02*
X142062857Y-100017200D01*
X142062857Y-100017200D02*
X142110476Y-99969580D01*
X142110476Y-99969580D02*
X142158095Y-99874342D01*
X142158095Y-99874342D02*
X142158095Y-99779104D01*
X142158095Y-99779104D02*
X142110476Y-99683866D01*
X142110476Y-99683866D02*
X142062857Y-99636247D01*
X142062857Y-99636247D02*
X141967619Y-99588628D01*
X141967619Y-99588628D02*
X141777143Y-99541009D01*
X141777143Y-99541009D02*
X141681905Y-99493390D01*
X141681905Y-99493390D02*
X141634286Y-99445771D01*
X141634286Y-99445771D02*
X141586667Y-99350533D01*
X141586667Y-99350533D02*
X141586667Y-99255295D01*
X141586667Y-99255295D02*
X141634286Y-99160057D01*
X141634286Y-99160057D02*
X141681905Y-99112438D01*
X141681905Y-99112438D02*
X141777143Y-99064819D01*
X141777143Y-99064819D02*
X142015238Y-99064819D01*
X142015238Y-99064819D02*
X142158095Y-99112438D01*
X142491429Y-99064819D02*
X142729524Y-100064819D01*
X142729524Y-100064819D02*
X142920000Y-99350533D01*
X142920000Y-99350533D02*
X143110476Y-100064819D01*
X143110476Y-100064819D02*
X143348572Y-99064819D01*
X144253333Y-100064819D02*
X143681905Y-100064819D01*
X143967619Y-100064819D02*
X143967619Y-99064819D01*
X143967619Y-99064819D02*
X143872381Y-99207676D01*
X143872381Y-99207676D02*
X143777143Y-99302914D01*
X143777143Y-99302914D02*
X143681905Y-99350533D01*
X153214285Y-74431009D02*
X153357142Y-74478628D01*
X153357142Y-74478628D02*
X153404761Y-74526247D01*
X153404761Y-74526247D02*
X153452380Y-74621485D01*
X153452380Y-74621485D02*
X153452380Y-74764342D01*
X153452380Y-74764342D02*
X153404761Y-74859580D01*
X153404761Y-74859580D02*
X153357142Y-74907200D01*
X153357142Y-74907200D02*
X153261904Y-74954819D01*
X153261904Y-74954819D02*
X152880952Y-74954819D01*
X152880952Y-74954819D02*
X152880952Y-73954819D01*
X152880952Y-73954819D02*
X153214285Y-73954819D01*
X153214285Y-73954819D02*
X153309523Y-74002438D01*
X153309523Y-74002438D02*
X153357142Y-74050057D01*
X153357142Y-74050057D02*
X153404761Y-74145295D01*
X153404761Y-74145295D02*
X153404761Y-74240533D01*
X153404761Y-74240533D02*
X153357142Y-74335771D01*
X153357142Y-74335771D02*
X153309523Y-74383390D01*
X153309523Y-74383390D02*
X153214285Y-74431009D01*
X153214285Y-74431009D02*
X152880952Y-74431009D01*
X153738095Y-73954819D02*
X154309523Y-73954819D01*
X154023809Y-74954819D02*
X154023809Y-73954819D01*
X154595238Y-74050057D02*
X154642857Y-74002438D01*
X154642857Y-74002438D02*
X154738095Y-73954819D01*
X154738095Y-73954819D02*
X154976190Y-73954819D01*
X154976190Y-73954819D02*
X155071428Y-74002438D01*
X155071428Y-74002438D02*
X155119047Y-74050057D01*
X155119047Y-74050057D02*
X155166666Y-74145295D01*
X155166666Y-74145295D02*
X155166666Y-74240533D01*
X155166666Y-74240533D02*
X155119047Y-74383390D01*
X155119047Y-74383390D02*
X154547619Y-74954819D01*
X154547619Y-74954819D02*
X155166666Y-74954819D01*
X151191905Y-107284819D02*
X151191905Y-106284819D01*
X151191905Y-106284819D02*
X151430000Y-106284819D01*
X151430000Y-106284819D02*
X151572857Y-106332438D01*
X151572857Y-106332438D02*
X151668095Y-106427676D01*
X151668095Y-106427676D02*
X151715714Y-106522914D01*
X151715714Y-106522914D02*
X151763333Y-106713390D01*
X151763333Y-106713390D02*
X151763333Y-106856247D01*
X151763333Y-106856247D02*
X151715714Y-107046723D01*
X151715714Y-107046723D02*
X151668095Y-107141961D01*
X151668095Y-107141961D02*
X151572857Y-107237200D01*
X151572857Y-107237200D02*
X151430000Y-107284819D01*
X151430000Y-107284819D02*
X151191905Y-107284819D01*
X152144286Y-106380057D02*
X152191905Y-106332438D01*
X152191905Y-106332438D02*
X152287143Y-106284819D01*
X152287143Y-106284819D02*
X152525238Y-106284819D01*
X152525238Y-106284819D02*
X152620476Y-106332438D01*
X152620476Y-106332438D02*
X152668095Y-106380057D01*
X152668095Y-106380057D02*
X152715714Y-106475295D01*
X152715714Y-106475295D02*
X152715714Y-106570533D01*
X152715714Y-106570533D02*
X152668095Y-106713390D01*
X152668095Y-106713390D02*
X152096667Y-107284819D01*
X152096667Y-107284819D02*
X152715714Y-107284819D01*
X141586667Y-108567200D02*
X141729524Y-108614819D01*
X141729524Y-108614819D02*
X141967619Y-108614819D01*
X141967619Y-108614819D02*
X142062857Y-108567200D01*
X142062857Y-108567200D02*
X142110476Y-108519580D01*
X142110476Y-108519580D02*
X142158095Y-108424342D01*
X142158095Y-108424342D02*
X142158095Y-108329104D01*
X142158095Y-108329104D02*
X142110476Y-108233866D01*
X142110476Y-108233866D02*
X142062857Y-108186247D01*
X142062857Y-108186247D02*
X141967619Y-108138628D01*
X141967619Y-108138628D02*
X141777143Y-108091009D01*
X141777143Y-108091009D02*
X141681905Y-108043390D01*
X141681905Y-108043390D02*
X141634286Y-107995771D01*
X141634286Y-107995771D02*
X141586667Y-107900533D01*
X141586667Y-107900533D02*
X141586667Y-107805295D01*
X141586667Y-107805295D02*
X141634286Y-107710057D01*
X141634286Y-107710057D02*
X141681905Y-107662438D01*
X141681905Y-107662438D02*
X141777143Y-107614819D01*
X141777143Y-107614819D02*
X142015238Y-107614819D01*
X142015238Y-107614819D02*
X142158095Y-107662438D01*
X142491429Y-107614819D02*
X142729524Y-108614819D01*
X142729524Y-108614819D02*
X142920000Y-107900533D01*
X142920000Y-107900533D02*
X143110476Y-108614819D01*
X143110476Y-108614819D02*
X143348572Y-107614819D01*
X143681905Y-107710057D02*
X143729524Y-107662438D01*
X143729524Y-107662438D02*
X143824762Y-107614819D01*
X143824762Y-107614819D02*
X144062857Y-107614819D01*
X144062857Y-107614819D02*
X144158095Y-107662438D01*
X144158095Y-107662438D02*
X144205714Y-107710057D01*
X144205714Y-107710057D02*
X144253333Y-107805295D01*
X144253333Y-107805295D02*
X144253333Y-107900533D01*
X144253333Y-107900533D02*
X144205714Y-108043390D01*
X144205714Y-108043390D02*
X143634286Y-108614819D01*
X143634286Y-108614819D02*
X144253333Y-108614819D01*
X141586667Y-117117200D02*
X141729524Y-117164819D01*
X141729524Y-117164819D02*
X141967619Y-117164819D01*
X141967619Y-117164819D02*
X142062857Y-117117200D01*
X142062857Y-117117200D02*
X142110476Y-117069580D01*
X142110476Y-117069580D02*
X142158095Y-116974342D01*
X142158095Y-116974342D02*
X142158095Y-116879104D01*
X142158095Y-116879104D02*
X142110476Y-116783866D01*
X142110476Y-116783866D02*
X142062857Y-116736247D01*
X142062857Y-116736247D02*
X141967619Y-116688628D01*
X141967619Y-116688628D02*
X141777143Y-116641009D01*
X141777143Y-116641009D02*
X141681905Y-116593390D01*
X141681905Y-116593390D02*
X141634286Y-116545771D01*
X141634286Y-116545771D02*
X141586667Y-116450533D01*
X141586667Y-116450533D02*
X141586667Y-116355295D01*
X141586667Y-116355295D02*
X141634286Y-116260057D01*
X141634286Y-116260057D02*
X141681905Y-116212438D01*
X141681905Y-116212438D02*
X141777143Y-116164819D01*
X141777143Y-116164819D02*
X142015238Y-116164819D01*
X142015238Y-116164819D02*
X142158095Y-116212438D01*
X142491429Y-116164819D02*
X142729524Y-117164819D01*
X142729524Y-117164819D02*
X142920000Y-116450533D01*
X142920000Y-116450533D02*
X143110476Y-117164819D01*
X143110476Y-117164819D02*
X143348572Y-116164819D01*
X143634286Y-116164819D02*
X144253333Y-116164819D01*
X144253333Y-116164819D02*
X143920000Y-116545771D01*
X143920000Y-116545771D02*
X144062857Y-116545771D01*
X144062857Y-116545771D02*
X144158095Y-116593390D01*
X144158095Y-116593390D02*
X144205714Y-116641009D01*
X144205714Y-116641009D02*
X144253333Y-116736247D01*
X144253333Y-116736247D02*
X144253333Y-116974342D01*
X144253333Y-116974342D02*
X144205714Y-117069580D01*
X144205714Y-117069580D02*
X144158095Y-117117200D01*
X144158095Y-117117200D02*
X144062857Y-117164819D01*
X144062857Y-117164819D02*
X143777143Y-117164819D01*
X143777143Y-117164819D02*
X143681905Y-117117200D01*
X143681905Y-117117200D02*
X143634286Y-117069580D01*
X161584819Y-103166666D02*
X161108628Y-103499999D01*
X161584819Y-103738094D02*
X160584819Y-103738094D01*
X160584819Y-103738094D02*
X160584819Y-103357142D01*
X160584819Y-103357142D02*
X160632438Y-103261904D01*
X160632438Y-103261904D02*
X160680057Y-103214285D01*
X160680057Y-103214285D02*
X160775295Y-103166666D01*
X160775295Y-103166666D02*
X160918152Y-103166666D01*
X160918152Y-103166666D02*
X161013390Y-103214285D01*
X161013390Y-103214285D02*
X161061009Y-103261904D01*
X161061009Y-103261904D02*
X161108628Y-103357142D01*
X161108628Y-103357142D02*
X161108628Y-103738094D01*
X160584819Y-102309523D02*
X160584819Y-102499999D01*
X160584819Y-102499999D02*
X160632438Y-102595237D01*
X160632438Y-102595237D02*
X160680057Y-102642856D01*
X160680057Y-102642856D02*
X160822914Y-102738094D01*
X160822914Y-102738094D02*
X161013390Y-102785713D01*
X161013390Y-102785713D02*
X161394342Y-102785713D01*
X161394342Y-102785713D02*
X161489580Y-102738094D01*
X161489580Y-102738094D02*
X161537200Y-102690475D01*
X161537200Y-102690475D02*
X161584819Y-102595237D01*
X161584819Y-102595237D02*
X161584819Y-102404761D01*
X161584819Y-102404761D02*
X161537200Y-102309523D01*
X161537200Y-102309523D02*
X161489580Y-102261904D01*
X161489580Y-102261904D02*
X161394342Y-102214285D01*
X161394342Y-102214285D02*
X161156247Y-102214285D01*
X161156247Y-102214285D02*
X161061009Y-102261904D01*
X161061009Y-102261904D02*
X161013390Y-102309523D01*
X161013390Y-102309523D02*
X160965771Y-102404761D01*
X160965771Y-102404761D02*
X160965771Y-102595237D01*
X160965771Y-102595237D02*
X161013390Y-102690475D01*
X161013390Y-102690475D02*
X161061009Y-102738094D01*
X161061009Y-102738094D02*
X161156247Y-102785713D01*
X160584819Y-121166666D02*
X160108628Y-121499999D01*
X160584819Y-121738094D02*
X159584819Y-121738094D01*
X159584819Y-121738094D02*
X159584819Y-121357142D01*
X159584819Y-121357142D02*
X159632438Y-121261904D01*
X159632438Y-121261904D02*
X159680057Y-121214285D01*
X159680057Y-121214285D02*
X159775295Y-121166666D01*
X159775295Y-121166666D02*
X159918152Y-121166666D01*
X159918152Y-121166666D02*
X160013390Y-121214285D01*
X160013390Y-121214285D02*
X160061009Y-121261904D01*
X160061009Y-121261904D02*
X160108628Y-121357142D01*
X160108628Y-121357142D02*
X160108628Y-121738094D01*
X160013390Y-120595237D02*
X159965771Y-120690475D01*
X159965771Y-120690475D02*
X159918152Y-120738094D01*
X159918152Y-120738094D02*
X159822914Y-120785713D01*
X159822914Y-120785713D02*
X159775295Y-120785713D01*
X159775295Y-120785713D02*
X159680057Y-120738094D01*
X159680057Y-120738094D02*
X159632438Y-120690475D01*
X159632438Y-120690475D02*
X159584819Y-120595237D01*
X159584819Y-120595237D02*
X159584819Y-120404761D01*
X159584819Y-120404761D02*
X159632438Y-120309523D01*
X159632438Y-120309523D02*
X159680057Y-120261904D01*
X159680057Y-120261904D02*
X159775295Y-120214285D01*
X159775295Y-120214285D02*
X159822914Y-120214285D01*
X159822914Y-120214285D02*
X159918152Y-120261904D01*
X159918152Y-120261904D02*
X159965771Y-120309523D01*
X159965771Y-120309523D02*
X160013390Y-120404761D01*
X160013390Y-120404761D02*
X160013390Y-120595237D01*
X160013390Y-120595237D02*
X160061009Y-120690475D01*
X160061009Y-120690475D02*
X160108628Y-120738094D01*
X160108628Y-120738094D02*
X160203866Y-120785713D01*
X160203866Y-120785713D02*
X160394342Y-120785713D01*
X160394342Y-120785713D02*
X160489580Y-120738094D01*
X160489580Y-120738094D02*
X160537200Y-120690475D01*
X160537200Y-120690475D02*
X160584819Y-120595237D01*
X160584819Y-120595237D02*
X160584819Y-120404761D01*
X160584819Y-120404761D02*
X160537200Y-120309523D01*
X160537200Y-120309523D02*
X160489580Y-120261904D01*
X160489580Y-120261904D02*
X160394342Y-120214285D01*
X160394342Y-120214285D02*
X160203866Y-120214285D01*
X160203866Y-120214285D02*
X160108628Y-120261904D01*
X160108628Y-120261904D02*
X160061009Y-120309523D01*
X160061009Y-120309523D02*
X160013390Y-120404761D01*
X160054819Y-112466666D02*
X159578628Y-112799999D01*
X160054819Y-113038094D02*
X159054819Y-113038094D01*
X159054819Y-113038094D02*
X159054819Y-112657142D01*
X159054819Y-112657142D02*
X159102438Y-112561904D01*
X159102438Y-112561904D02*
X159150057Y-112514285D01*
X159150057Y-112514285D02*
X159245295Y-112466666D01*
X159245295Y-112466666D02*
X159388152Y-112466666D01*
X159388152Y-112466666D02*
X159483390Y-112514285D01*
X159483390Y-112514285D02*
X159531009Y-112561904D01*
X159531009Y-112561904D02*
X159578628Y-112657142D01*
X159578628Y-112657142D02*
X159578628Y-113038094D01*
X160054819Y-111514285D02*
X160054819Y-112085713D01*
X160054819Y-111799999D02*
X159054819Y-111799999D01*
X159054819Y-111799999D02*
X159197676Y-111895237D01*
X159197676Y-111895237D02*
X159292914Y-111990475D01*
X159292914Y-111990475D02*
X159340533Y-112085713D01*
X151191905Y-114754819D02*
X151191905Y-113754819D01*
X151191905Y-113754819D02*
X151430000Y-113754819D01*
X151430000Y-113754819D02*
X151572857Y-113802438D01*
X151572857Y-113802438D02*
X151668095Y-113897676D01*
X151668095Y-113897676D02*
X151715714Y-113992914D01*
X151715714Y-113992914D02*
X151763333Y-114183390D01*
X151763333Y-114183390D02*
X151763333Y-114326247D01*
X151763333Y-114326247D02*
X151715714Y-114516723D01*
X151715714Y-114516723D02*
X151668095Y-114611961D01*
X151668095Y-114611961D02*
X151572857Y-114707200D01*
X151572857Y-114707200D02*
X151430000Y-114754819D01*
X151430000Y-114754819D02*
X151191905Y-114754819D01*
X152096667Y-113754819D02*
X152715714Y-113754819D01*
X152715714Y-113754819D02*
X152382381Y-114135771D01*
X152382381Y-114135771D02*
X152525238Y-114135771D01*
X152525238Y-114135771D02*
X152620476Y-114183390D01*
X152620476Y-114183390D02*
X152668095Y-114231009D01*
X152668095Y-114231009D02*
X152715714Y-114326247D01*
X152715714Y-114326247D02*
X152715714Y-114564342D01*
X152715714Y-114564342D02*
X152668095Y-114659580D01*
X152668095Y-114659580D02*
X152620476Y-114707200D01*
X152620476Y-114707200D02*
X152525238Y-114754819D01*
X152525238Y-114754819D02*
X152239524Y-114754819D01*
X152239524Y-114754819D02*
X152144286Y-114707200D01*
X152144286Y-114707200D02*
X152096667Y-114659580D01*
D12*
%TO.C,D1*%
X149370000Y-101775000D02*
X149370000Y-104865000D01*
X149370000Y-101775170D02*
G75*
G02*
X154920000Y-103320000I2560000J-1544830D01*
G01*
X154920000Y-103320000D02*
G75*
G02*
X149370000Y-104864830I-2990000J0D01*
G01*
X154430000Y-103320000D02*
G75*
G02*
X149430000Y-103320000I-2500000J0D01*
G01*
X149430000Y-103320000D02*
G75*
G02*
X154430000Y-103320000I2500000J0D01*
G01*
%TO.C,SW1*%
X139420000Y-103110000D02*
X139420000Y-104610000D01*
X140670000Y-107110000D02*
X145170000Y-107110000D01*
X145170000Y-100610000D02*
X140670000Y-100610000D01*
X146420000Y-104610000D02*
X146420000Y-103110000D01*
%TO.C,BT2*%
X163325243Y-93588169D02*
G75*
G02*
X160000000Y-94550000I-2015243J738169D01*
G01*
X147996646Y-94566530D02*
G75*
G02*
X144660000Y-93580000I-1306646J1716531D01*
G01*
X164780000Y-89630000D02*
X163340000Y-93580000D01*
X164780000Y-89000000D02*
X164780000Y-89630000D01*
X164780000Y-80540000D02*
X164780000Y-83000000D01*
X162700000Y-78460000D02*
X164780000Y-80540000D01*
X162700000Y-78460000D02*
X159200000Y-78460000D01*
X148800000Y-78460000D02*
X145300000Y-78460000D01*
X145300000Y-78460000D02*
X143220000Y-80540000D01*
X143220000Y-89630000D02*
X144660000Y-93580000D01*
X143220000Y-89000000D02*
X143220000Y-89630000D01*
X143220000Y-80540000D02*
X143220000Y-83000000D01*
%TO.C,D2*%
X154430000Y-110790000D02*
G75*
G02*
X149430000Y-110790000I-2500000J0D01*
G01*
X149430000Y-110790000D02*
G75*
G02*
X154430000Y-110790000I2500000J0D01*
G01*
X154920000Y-110790000D02*
G75*
G02*
X149370000Y-112334830I-2990000J0D01*
G01*
X149370000Y-109245170D02*
G75*
G02*
X154920000Y-110790000I2560000J-1544830D01*
G01*
X149370000Y-109245000D02*
X149370000Y-112335000D01*
%TO.C,SW2*%
X146420000Y-113160000D02*
X146420000Y-111660000D01*
X145170000Y-109160000D02*
X140670000Y-109160000D01*
X140670000Y-115660000D02*
X145170000Y-115660000D01*
X139420000Y-111660000D02*
X139420000Y-113160000D01*
%TO.C,SW3*%
X146420000Y-121710000D02*
X146420000Y-120210000D01*
X145170000Y-117710000D02*
X140670000Y-117710000D01*
X140670000Y-124210000D02*
X145170000Y-124210000D01*
X139420000Y-120210000D02*
X139420000Y-121710000D01*
%TO.C,R6*%
X164870000Y-99730000D02*
X164540000Y-99730000D01*
X162130000Y-99730000D02*
X162460000Y-99730000D01*
X164870000Y-106270000D02*
X164870000Y-99730000D01*
X164540000Y-106270000D02*
X164870000Y-106270000D01*
X162460000Y-106270000D02*
X162130000Y-106270000D01*
X162130000Y-106270000D02*
X162130000Y-99730000D01*
%TO.C,R8*%
X161130000Y-124270000D02*
X161130000Y-117730000D01*
X161460000Y-124270000D02*
X161130000Y-124270000D01*
X163540000Y-124270000D02*
X163870000Y-124270000D01*
X163870000Y-124270000D02*
X163870000Y-117730000D01*
X161130000Y-117730000D02*
X161460000Y-117730000D01*
X163870000Y-117730000D02*
X163540000Y-117730000D01*
%TO.C,R1*%
X160350000Y-113850000D02*
X160350000Y-110800000D01*
X164650000Y-113850000D02*
X164650000Y-110800000D01*
X164650000Y-113850000D02*
G75*
G02*
X160334475Y-113828234I-2150000J1550000D01*
G01*
X160350000Y-110800000D02*
G75*
G02*
X164618249Y-110755487I2150000J-1500000D01*
G01*
%TO.C,D3*%
X149370000Y-116715000D02*
X149370000Y-119805000D01*
X149370000Y-116715170D02*
G75*
G02*
X154920000Y-118260000I2560000J-1544830D01*
G01*
X154920000Y-118260000D02*
G75*
G02*
X149370000Y-119804830I-2990000J0D01*
G01*
X154430000Y-118260000D02*
G75*
G02*
X149430000Y-118260000I-2500000J0D01*
G01*
X149430000Y-118260000D02*
G75*
G02*
X154430000Y-118260000I2500000J0D01*
G01*
%TD*%
M02*
